<svg width="148" height="187" viewBox="0 0 148 187" fill="none" xmlns="http://www.w3.org/2000/svg">
<path d="M116.399 54H45.6669C28.4541 54 14.3666 68.0523 14.3666 85.2221V98.6223C5.90767 102.32 0 110.734 0 120.532C0 130.329 5.90767 138.743 14.3666 142.441V155.778C14.3666 172.947 28.4541 187 45.6669 187H116.399C133.612 187 147.7 172.947 147.7 155.778V85.2221C147.7 68.0523 133.612 54 116.399 54Z" fill="#8FA2CC"/>
<path d="M111.216 141.463C115.361 135.555 117.801 128.365 117.801 120.611C117.801 100.491 101.449 84.1802 81.2783 84.1802C61.1078 84.1802 44.7483 100.491 44.7483 120.611C44.7483 140.732 61.1 157.042 81.2705 157.042C88.8044 157.042 95.7966 154.768 101.609 150.871L117.139 156.907L111.216 141.463Z" fill="#C6DDF4"/>
<path d="M81.2789 69.4601C59.7605 69.4601 41.352 82.6854 33.7461 101.422H25.7895C15.2657 101.422 6.71115 109.963 6.71115 120.452C6.71115 130.942 15.2737 139.483 25.7895 139.483H33.6186C41.1447 158.395 59.6411 171.771 81.2867 171.771C92.3128 171.771 102.509 168.287 110.873 162.387L102.318 159.063C96.0755 162.467 88.9083 164.407 81.2867 164.407C57.0422 164.407 37.3816 144.804 37.3816 120.611C37.3816 96.4196 57.0339 76.8163 81.2867 76.8163C105.531 76.8163 125.192 96.4196 125.192 120.611C125.192 128.524 123.079 135.936 119.403 142.338L122.664 150.823C128.891 142.354 132.574 131.912 132.574 120.611C132.558 92.3638 109.597 69.4601 81.2789 69.4601ZM25.7815 131.904L25.4068 131.912C19.244 131.714 14.2851 126.647 14.2851 120.452C14.2851 114.297 19.1803 109.255 25.2952 109.001H31.3384C30.4694 112.738 29.991 116.619 29.991 120.62C29.991 124.501 30.4375 128.278 31.2587 131.912H25.7815V131.904Z" fill="white"/>
<path fill-rule="evenodd" clip-rule="evenodd" d="M81.5 0C60.237 0 43 17.237 43 38.5V55H63V37.5C63 27.2827 71.2827 19 81.5 19C91.7173 19 100 27.2827 100 37.5V55H120V38.5C120 17.237 102.763 0 81.5 0Z" fill="#8FA2CC"/>
</svg>
